<?xml version="1.0" standalone="no"?><!DOCTYPE svg PUBLIC "-//W3C//DTD SVG 1.1//EN" "http://www.w3.org/Graphics/SVG/1.1/DTD/svg11.dtd"><svg t="1642429770469" class="icon" viewBox="0 0 2166 1024" version="1.1" xmlns="http://www.w3.org/2000/svg" p-id="10462" xmlns:xlink="http://www.w3.org/1999/xlink" width="423.046875" height="200"><defs><style type="text/css"></style></defs><path d="M2150.586213 512.002116c-5.552521-283.93189-236.997851-512-521.750769-512-3.174078 0-6.432799 0-9.615342 0.067714h0.473996c-26.205191 0-54.170937 1.828269-81.256406 4.536816-227.528517 33.38284-379.211374 196.847876-463.178443 322.325541C989.463911 201.454521 836.896545 37.989486 611.202645 4.60453c-27.085469-2.708547-54.170937-4.536816-81.256406-4.536816C527.508547 0 524.596859 0 521.752885 0 236.995735 0 5.552521 228.065994-0.002116 511.458291v0.541709c5.552521 283.93189 236.997851 512 521.750769 512 2.911688 0 5.755662 0 8.675814-0.067714h-0.406282a667.868408 667.868408 0 0 0 83.086791-5.417093c227.524285-32.502562 379.209258-195.902 464.050256-321.44738 85.795338 125.481898 237.480311 288.942701 464.050257 322.327657 27.965746 2.708547 54.170937 4.536816 82.138799 4.536816h5.484808c284.744454 0 516.198248-228.065994 521.750768-511.449826v-0.541709z m-1565.588759 325.025624c-18.07955 3.597289-38.80205 3.597289-56.8816 3.597289-2.166837 0.067714-4.807671 0.067714-7.38079 0.067714A340.316218 340.316218 0 0 1 180.530997 510.643611v-0.473996c5.958803-183.781253 156.422814-330.52736 341.084344-330.52736 2.57312 0 5.213953 0 7.787073 0.067714h-0.406282c18.07955 0 37.921772 1.828269 56.8816 3.597288 213.987899 31.622285 344.87631 241.067019 389.161051 326.862358-45.167135 85.795338-176.055546 297.940155-390.043445 326.864473z m588.651876-325.025624c44.225492-83.967069 175.181617-295.240073 389.163168-326.864473 18.07955-3.597289 37.921772-3.597289 56.001322-3.597289 2.979402-0.067714 6.500512-0.135427 10.021624-0.135428a339.414779 339.414779 0 0 1 339.323789 330.10415v0.473996c-5.958803 183.781253-156.422814 330.52736-341.152058 330.527359-2.57312 0-5.213953 0-7.787073-0.067713h0.406283c-18.07955 0-37.921772-1.828269-56.001323-3.597289-213.101273-31.605356-344.87631-242.87836-390.043445-326.843313zM380.021822 565.29066h319.616994v-104.755167H380.9021z m1275.767895 0h107.465829v-104.755167h-108.341874v-107.465829h-102.055084v108.341875h-108.341874v103.809291h108.341874v106.517838h103.809291z m511.045661-499.335428c0 27.085469-19.840106 46.047413-47.875682 46.047413-0.541709 0-1.151132 0.067714-1.828269 0.067714a46.047413 46.047413 0 0 1-46.047413-45.167135v-0.067714c0-25.2572 21.668375-46.927691 47.875682-46.927691 27.965746 0 47.875682 19.840106 47.875682 46.047413z m-82.1388 0c0 19.840106 14.423012 36.093503 36.093503 36.093503 19.840106 0 34.330832-16.251281 34.330832-36.093503s-14.423012-36.093503-34.330832-36.093503c-21.668375-1.828269-36.093503 14.423012-36.093503 36.093503z m27.085469 23.48818h-9.005919V42.526302l18.079551-0.880278c8.125641 0 12.662457 0.880278 16.251281 2.708547a10.444834 10.444834 0 0 1 5.417094 9.945446c0 5.417094-3.597289 9.005918-9.945446 9.945445 4.536816 1.828269 6.297371 5.417094 8.125641 11.714465l2.708547 11.714465h-10.834188c-1.828269-1.828269-1.828269-6.297371-3.597289-11.714465-1.828269-4.536816-3.597289-6.297371-9.945445-6.297371h-4.536816z m1.760555-27.085469h5.417094c6.297371 0 9.005918-0.880278 9.005918-6.297371 0-4.536816-2.708547-6.297371-9.005918-6.297371h-6.295256v12.662456z" fill="#00979D" p-id="10463"></path></svg>