<?xml version="1.0" standalone="no"?><!DOCTYPE svg PUBLIC "-//W3C//DTD SVG 1.1//EN" "http://www.w3.org/Graphics/SVG/1.1/DTD/svg11.dtd"><svg t="1642427072707" class="icon" viewBox="0 0 1031 1024" version="1.1" xmlns="http://www.w3.org/2000/svg" p-id="18297" xmlns:xlink="http://www.w3.org/1999/xlink" width="201.3671875" height="200"><defs><style type="text/css"></style></defs><path d="M7.893333 0m42.631141 0l937.885096 0q42.631141 0 42.631141 42.631141l0 938.737718q0 42.631141-42.631141 42.631141l-937.885096 0q-42.631141 0-42.631141-42.631141l0-938.737718q0-42.631141 42.631141-42.631141Z" fill="#89BAE4" p-id="18298"></path><path d="M244.496164 476.616153L0.006572 566.354704l236.602831 160.932557L476.835881 540.562864l-232.979184-63.946711z m0 0" fill="#5D93CE" p-id="18299"></path><path d="M667.183925 73.325562c-21.31557 2.771024-14.920899 1.705246-44.336387 25.152373S513.711818 255.786844 470.44121 300.123231c-38.368027 40.073272-53.715237 18.970858-93.575354 52.436303s-138.124896 129.811823-138.124896 129.811823l208.679434 76.096586 102.741049-242.57119c37.302248-51.370525 19.610325-63.946711 40.073273-118.514571a414.161532 414.161532 0 0 1 42.63114-71.407161c19.397169-31.120733 47.10741-54.354704 33.678601-52.649459z m0 0" fill="#845A31" p-id="18300"></path><path d="M970.930802 812.975853s-138.338052-62.241465-199.94005-59.896752-137.485429 69.275604-229.142381 159.866777l101.888426-360.019983s231.273938 202.497918 327.194005 260.049958z" fill="#3A5266" p-id="18301"></path><path d="M663.986589 70.767694c-48.812656 0-96.772689 213.155704-180.11657 378.564529S230.854199 724.729392 230.854199 724.729392c28.349709 13.002498 54.141549 7.673605 85.262282 36.449625 21.31557 25.365529 81.212323 149.208993 117.235637 227.863448a693.395504 693.395504 0 0 0 66.930891-42.631141 511.573689 511.573689 0 0 0 114.464612-109.775187 587.030808 587.030808 0 0 1 102.527894-117.235637 127.893422 127.893422 0 0 1 72.259783-31.973356c78.441299-6.820983 194.398002 133.648626 194.398002 133.648626S740.509487 71.194005 663.986589 70.767694z m0 0" fill="#EB983F" p-id="18302"></path></svg>