<?xml version="1.0" standalone="no"?><!DOCTYPE svg PUBLIC "-//W3C//DTD SVG 1.1//EN" "http://www.w3.org/Graphics/SVG/1.1/DTD/svg11.dtd"><svg t="1642427220010" class="icon" viewBox="0 0 1024 1024" version="1.1" xmlns="http://www.w3.org/2000/svg" p-id="21315" xmlns:xlink="http://www.w3.org/1999/xlink" width="200" height="200"><defs><style type="text/css"></style></defs><path d="M269.226667 456.746667L24.32 546.773333l236.8 161.066667 241.066667-186.88-232.96-64z m0 0" fill="#5D93CE" p-id="21316"></path><path d="M692.053333 53.333333c-21.333333 2.773333-14.933333 1.493333-44.373333 24.96s-109.013333 156.373333-152.32 201.813334c-38.613333 40.106667-53.76 18.986667-93.866667 52.48s-138.24 129.92-138.24 129.92l208.853334 76.16L576 295.893333c37.333333-51.413333 19.626667-64 39.893333-118.613333a431.36 431.36 0 0 1 42.666667-71.466667c19.626667-30.933333 47.146667-54.4 33.706667-52.48z m0 0" fill="#845A31" p-id="21317"></path><path d="M996.266667 793.6s-138.666667-62.506667-200.106667-60.16-137.813333 69.333333-229.333333 160.213333L668.586667 533.333333s231.466667 202.453333 327.68 260.266667z" fill="#3A5266" p-id="21318"></path><path d="M688.853333 50.773333c-48.64 0-96.853333 213.333333-180.266666 378.666667C423.466667 597.333333 256 705.493333 256 705.493333c28.373333 12.8 54.186667 7.68 85.333333 36.48 21.333333 25.173333 81.28 149.333333 117.333334 228.053334a647.04 647.04 0 0 0 66.986666-42.666667A507.093333 507.093333 0 0 0 640 817.066667a590.72 590.72 0 0 1 102.613333-117.546667 130.133333 130.133333 0 0 1 72.533334-32c78.293333-6.613333 194.346667 133.973333 194.346666 133.973333S765.44 51.2 688.853333 50.773333z m0 0" fill="#EB983F" p-id="21319"></path></svg>