<?xml version="1.0" standalone="no"?><!DOCTYPE svg PUBLIC "-//W3C//DTD SVG 1.1//EN" "http://www.w3.org/Graphics/SVG/1.1/DTD/svg11.dtd"><svg t="1642430161137" class="icon" viewBox="0 0 1972 1024" version="1.1" xmlns="http://www.w3.org/2000/svg" p-id="3867" xmlns:xlink="http://www.w3.org/1999/xlink" width="385.15625" height="200"><defs><style type="text/css"></style></defs><path d="M0 932.87979h65.085865v-257.835079l101.629003 224.803672c11.538549 27.011294 28.067454 36.965603 60.095508 36.965603s47.527203-10.033521 59.593832-36.965603l101.127327-224.803672v257.835079h65.587541v-257.835079c0-25.030994-10.007117-36.965603-31.051106-43.566603-49.560311-15.023877-82.591718-2.006704-97.694807 31.526379l-99.543087 222.321695-96.136971-222.321695c-14.522201-33.506678-48.081687-46.523851-98.143675-31.526379C10.033521 637.973493 0 650.013718 0 675.044711v257.835079z m507.194472-209.779795h65.58754v141.710278c-0.501676 7.921201 2.50838 26.034346 38.048167 26.404002 18.482801 0.501676 141.182198 0 142.18555 0v-169.117632H818.524058v231.827136c0 57.059048-70.604301 69.574545-103.662112 70.076221h-206.162446v-43.540199H715.54845c42.061575-4.515084 36.965603-25.53267 36.965603-32.556134v-17.030582h-138.673818c-64.610593-0.501676-106.144087-29.044402-106.645763-61.574132 0-3.010056 1.505028-145.22201 0-146.198958z m1406.884431-164.232892c-40.028467-1.003352-71.105977 3.010056-97.140323 14.046929-7.498737 3.010056-19.512557 3.010056-20.51591 12.515497 4.013408 3.987004 4.48868 10.561601 7.921201 16.027229 6.020112 10.033521 16.555309 23.525966 26.034346 30.523026 10.561601 7.921201 21.123201 16.027229 32.054458 23.050694 19.512557 11.987417 41.533495 19.010881 60.57078 31.051106 11.010469 6.99706 22.020938 16.000825 33.031407 23.525966 5.492032 4.013408 9.030169 10.561601 16.027229 13.017173v-1.531432c-3.485328-4.462276-4.48868-10.984065-7.921201-16.000825-5.01676-4.990356-10.007117-9.531845-15.023877-14.522201a237.081533 237.081533 0 0 0-52.095096-50.563664c-16.027229-11.010469-51.06534-26.034346-57.560724-44.569955l-0.976948-1.003352c10.984065-1.003352 24.001238-5.01676 34.536435-7.921201 17.030581-4.48868 32.52973-3.485328 50.167603-7.9212 7.921201-2.033108 16.027229-4.541488 24.054046-7.023465v-4.673508c-9.003765-9.003765-15.525553-21.123201-25.030994-29.519674a667.519571 667.519571 0 0 0-82.618122-61.600537c-15.499149-10.007117-35.539786-16.528905-52.042287-25.004589-6.046516-3.010056-16.027229-4.515084-19.538962-9.531845-9.030169-11.010469-14.020525-25.53267-20.542313-38.549843-14.495797-27.539374-28.516322-58.088804-41.031819-87.133206-9.003765-19.538961-14.522201-39.051519-25.53267-57.085452C1629.126915 173.39508 1573.124027 121.801661 1486.994173 71.290805c-18.482801-10.561601-40.530143-15.023877-64.082513-20.515909-12.515497-0.501676-25.030994-1.505028-37.546491-2.006705-7.921201-3.511732-16.027229-13.017173-23.024289-17.532257C1333.798154 13.202001 1260.183797-25.902326 1239.139807 25.691094c-13.518849 32.52973 20.040637 64.557785 31.552782 81.08669 8.528493 11.512145 19.512557 24.529318 25.53267 37.54649 3.511732 8.528493 4.515084 17.532257 7.921201 26.404002 7.921201 22.047342 15.525553 46.576659 26.034346 67.092569a238.771389 238.771389 0 0 0 18.482801 31.07751c4.013408 5.492032 11.010469 7.921201 12.515497 17.004177-7.023464 10.033521-7.498737 25.030994-11.512145 37.572895-18.033933 56.557372-11.010469 126.739209 14.522201 168.219896 7.921201 12.515497 27.037698 40.054871 52.570368 29.519674 22.549018-9.003765 17.532257-37.546491 24.027641-62.577485 1.531432-5.993708 0.501676-10.007117 3.511733-14.020525v1.003352c6.99706 14.020525 14.020525 27.539374 20.515909 41.559899 15.525553 24.529318 42.589655 50.167604 65.112269 67.092569 12.013821 9.003765 21.519262 24.529318 36.543138 30.047754v-1.531432h-1.003352c-3.010056-4.48868-7.525141-6.495384-11.512145-10.007117a242.916817 242.916817 0 0 1-26.034346-30.047754 645.921097 645.921097 0 0 1-56.0821-91.12021c-7.921201-15.499149-15.023877-32.52973-21.492857-48.055284-3.03646-6.020112-3.03646-15.023877-7.921201-18.007529-7.525141 11.010469-18.482801 20.515909-24.054045 34.034759-9.505441 21.519262-10.561601 48.055283-14.020525 75.594657-2.006704 0.501676-1.003352 0-2.006704 1.003352-16.000825-3.987004-21.519262-20.515909-27.51297-34.536435-15.023877-35.539786-17.558661-92.625239-4.541489-133.683461 3.511732-10.561601 18.482801-43.566603 12.541901-53.57372-3.010056-9.505441-13.017173-15.023877-18.482801-22.522613a203.574854 203.574854 0 0 1-18.007529-32.054459c-12.013821-28.04105-18.007529-59.065752-31.024703-87.133206-6.046516-13.017173-16.528905-26.536022-25.057397-38.549842-9.505441-13.518849-20.014233-23.050694-27.539374-39.051519-2.481976-5.518436-5.993708-14.522201-1.9803-20.51591a7.921201 7.921201 0 0 1 6.99706-6.521788c6.495384-5.518436 25.030994 1.505028 31.552782 4.515084 18.482801 7.498737 34.034758 14.522201 49.560312 25.00459 6.99706 5.01676 14.522201 14.522201 23.525965 17.056985h10.561601c16.000825 3.485328 34.034758 0.976948 49.032232 5.492033a320.069311 320.069311 0 0 1 72.109329 34.536434 444.273735 444.273735 0 0 1 156.206075 171.229952c5.993708 11.512145 8.502089 22.047342 14.020525 34.061162 10.561601 24.529318 23.55237 49.560311 34.034758 73.587954 10.561601 23.525966 20.542313 47.527203 35.566191 67.092568 7.525141 10.561601 37.546491 16.027229 51.065339 21.519262 10.033521 4.515084 25.53267 8.528493 34.562839 14.020525 17.004177 10.561601 34.034758 22.522614 50.167603 34.061162 7.921201 5.993708 33.031406 18.482801 34.536435 28.489918z" fill="#00678C" p-id="3868"></path><path d="M1403.399103 123.808365a77.838997 77.838997 0 0 0-20.51591 2.6404v0.976948h0.976948c4.013408 7.921201 11.036873 13.545253 16.027229 20.515909 3.987004 7.921201 7.525141 16.027229 11.512145 24.054046l1.003352-1.003352c6.99706-4.990356 10.561601-13.017173 10.561601-25.030994-3.010056-3.511732-3.511732-7.023464-6.020112-10.5616-3.010056-5.01676-9.505441-7.525141-13.518849-11.512145z" fill="#00678C" p-id="3869"></path><path d="M868.691661 932.87979h188.234129a142.792842 142.792842 0 0 0 60.095509-12.515497C1145.564025 907.34712 1159.135682 889.814863 1159.135682 866.816977v-48.055283c0-18.482801-15.525553-36.067867-46.550256-48.081688a164.206488 164.206488 0 0 0-55.580424-9.50544h-79.212005c-26.404002 0-39.051519-7.921201-42.563251-25.53267a24.318086 24.318086 0 0 1-0.501676-5.993709v-29.546078a22.390594 22.390594 0 0 1 0.501676-5.518436c3.511732-13.518849 10.561601-17.030581 33.559486-19.512558h192.749214v-43.566603h-183.217369c-26.404002 0-40.556547 1.505028-53.04564 5.518437-38.576247 11.987417-55.580424 31.024702-55.580424 64.557784v38.074571c0 29.519674 33.031406 54.577072 89.113506 60.57078 5.993708 0.501676 12.515497 0.501676 19.010882 0.501676h67.594245a29.044402 29.044402 0 0 1 6.99706 0.52808c20.542313 1.9803 29.546078 5.492032 35.539786 12.964365a15.261513 15.261513 0 0 1 5.043165 12.040225v38.048167c0 4.48868-3.03646 10.561601-9.030169 15.525553s-15.551957 8.502089-28.04105 9.003764c-2.6404 0-3.987004 0.501676-6.521788 0.501677H868.691661z m697.910577-75.594658c0 44.569955 33.559486 69.600949 100.652055 74.61771 6.495384 0.501676 12.489093 0.976948 19.010882 0.976948h170.2266v-43.540199h-171.626013c-38.074571 0-52.596772-9.531845-52.596771-32.556135v-225.305348h-65.666753v225.807024z m-365.98587 2.006704v-155.202722c0-39.606003 28.014646-63.60724 82.618122-71.105977 6.020112-0.501676 12.013821-1.003352 17.532257-1.003353h124.098809c6.495384 0 12.013821 0.501676 18.482801 1.003353 54.550668 7.498737 82.090042 31.684802 82.090042 71.105977v155.202722c0 32.028054-11.512145 49.058635-38.549842 60.597185l64.082512 58.088804h-75.489041l-52.068692-47.051932-52.596772 3.010057h-70.076221a153.143211 153.143211 0 0 1-38.07457-4.990357c-41.507091-11.538549-62.049404-33.559486-62.049405-69.600949z m70.577897-3.485328a40.318911 40.318911 0 0 0 1.531432 6.495385c3.485328 18.033933 20.515909 28.04105 46.550256 28.04105H1378.288897l-54.075396-49.08504h75.594657l47.527204 43.091331a31.288742 31.288742 0 0 0 16.528905-21.123201 28.489918 28.489918 0 0 0 0.501676-6.521789v-148.628126a24.21247 24.21247 0 0 0-0.501676-5.993709c-3.511732-17.004177-20.515909-26.404002-46.048579-26.404001h-98.539735c-29.044402 0-48.081687 12.515497-48.081688 32.52973zM1886.565933 933.381466h9.50544v-36.543139h12.515497v-7.498736h-35.03811v7.498736h13.017173z m72.584601 0h9.003764v-44.041875h-13.492445l-11.036872 30.047754-11.987417-30.047754h-13.017173v44.041875h8.502089v-33.533083h0.501676l12.515496 33.533083h6.495385l12.541901-33.533083v33.533083z" fill="#CE8B2C" p-id="3870"></path></svg>