<?xml version="1.0" standalone="no"?><!DOCTYPE svg PUBLIC "-//W3C//DTD SVG 1.1//EN" "http://www.w3.org/Graphics/SVG/1.1/DTD/svg11.dtd"><svg t="1642425109995" class="icon" viewBox="0 0 1024 1024" version="1.1" xmlns="http://www.w3.org/2000/svg" p-id="9218" xmlns:xlink="http://www.w3.org/1999/xlink" width="200" height="200"><defs><style type="text/css"></style></defs><path d="M325.39968 34.176A373.632 373.632 0 0 1 477.01568 1.856 629.888 629.888 0 0 1 588.82368 4.544a283.456 283.456 0 0 1 135.616 45.952A102.912 102.912 0 0 1 768.02368 128.512c-0.576 80.448 0 160.896-0.576 241.28a126.208 126.208 0 0 1-40 94.336 156.672 156.672 0 0 1-93.824 35.2H375.12768a139.52 139.52 0 0 0-94.592 34.368 150.336 150.336 0 0 0-43.072 114.56c0 39.936 0.576 79.872 0 119.744-30.912 0-61.888 0.64-92.736 0a130.624 130.624 0 0 1-99.456-61.056 336.512 336.512 0 0 1-44.288-171.456 63.36 63.36 0 0 1 1.856-30.208 46.08 46.08 0 0 1-1.216-22.4A280.32 280.32 0 0 1 51.22368 321.856a145.536 145.536 0 0 1 121.6-55.616c114.624 0.576 229.248 0 343.232 0v-32H267.15968c0-41.664-0.576-83.2-0.576-125.248A100.672 100.672 0 0 1 325.39968 34.176z m35.136 51.2a44.032 44.032 0 0 0-9.728 75.84 44.288 44.288 0 0 0 69.12-32.704 43.584 43.584 0 0 0-59.392-42.944z" fill="#3774A7" p-id="9219"></path><path d="M788.75968 256.384h77.184a124.48 124.48 0 0 1 100.352 42.432 291.712 291.712 0 0 1 57.6 160v101.12a261.184 261.184 0 0 1-61.44 156.48 142.528 142.528 0 0 1-103.936 41.28c-116.736-0.64-233.536 0-350.848 0v32h249.856c0 40.576 0 80.704 0.576 121.28a87.808 87.808 0 0 1-48.64 73.92 380.992 380.992 0 0 1-163.52 38.848H480.27968a376 376 0 0 1-167.872-41.856 109.952 109.952 0 0 1-56.512-87.36c0.576-80.576-0.576-161.28 0.576-241.984a125.696 125.696 0 0 1 37.056-90.304 160.448 160.448 0 0 1 102.4-38.784h255.424a132.8 132.8 0 0 0 96-36.992 153.024 153.024 0 0 0 40.768-104.32c0.64-41.28 0-83.648 0.64-126.08z m-152.064 601.6a46.656 46.656 0 0 0-26.752 21.184 43.712 43.712 0 0 0 24.384 61.312 43.2 43.2 0 1 0 2.432-82.496z" fill="#FFD140" p-id="9220"></path></svg>