<svg xmlns="http://www.w3.org/2000/svg" viewBox="0 0 290.54 156.71"><defs><style>.cls-1{fill:#3599cd;}.cls-2{fill:#f89939;}.cls-3{fill:#fff;}</style></defs><title>资源 2</title><g id="图层_2" data-name="图层 2"><g id="图层_1-2" data-name="图层 1"><path class="cls-1" d="M37.71,63.83A37,37,0,0,0,10.34,74.24C-6,90.58-2.61,120.56,18,141.16s59.93,14.64,66.91,7.64c5.66-5.63,13-46.32-7.63-66.92-11.59-11.57-26.13-17.72-39.55-18Z"/><path class="cls-2" d="M236.07,17.83C223.74,5.48,207-.33,188.86,0c-23.14.44-48.2,11-68.18,31C85.21,66.48,95.47,134.29,107.52,146.33c9.75,9.74,79.9,22.32,115.33-13.16q3.63-3.75,7.07-7.79a107.78,107.78,0,0,0,16.14-26c12.84-29.51,10-61.43-10-81.5Z"/><path d="M281.06,127.61c-1.31,0-2-.82-2-2.41a29.43,29.43,0,0,1,2.36-7.89c2.29-5.88,3.45-10.11,3.45-12.71a5.7,5.7,0,0,0-1.36-3.85,4.45,4.45,0,0,0-3.42-1.54,12.23,12.23,0,0,0-6.86,2.81,79.09,79.09,0,0,0-10.45,10.17,95.66,95.66,0,0,1,4.05-13L257.09,101a76.86,76.86,0,0,0-4.83,13,49.5,49.5,0,0,0-1.13,5.8q-2.83,2.85-5.92,5.44a4.53,4.53,0,0,1-2.78,1,2.52,2.52,0,0,1-2.11-1,4.31,4.31,0,0,1-.78-2.69,15.27,15.27,0,0,1,.69-4.14c.46-1.58,1.46-4.52,3-8.87L247,99.23h-.89l-2.76.12q-5,9.48-11.64,10.19a22.28,22.28,0,0,0,1.82-7.26,2.81,2.81,0,0,0-2.33-3.21,3.06,3.06,0,0,0-.8,0,6.44,6.44,0,0,0-5.79,3.51,13,13,0,0,0-2.11,6.61,4.9,4.9,0,0,0,3.45,4.54,51.32,51.32,0,0,1-4.74,6c-2.27,2.29-4,4-5.3,5.11a5.46,5.46,0,0,1-3.45,1.65c-1.64,0-2.43-1.15-2.43-3.45a50.55,50.55,0,0,1,2.72-12.15l3.63-11.77H214.1l-8.3,4.7a7.09,7.09,0,0,0-7-4.59,17.49,17.49,0,0,0-9.08,3.36,27.34,27.34,0,0,0-8.48,8.84,22.16,22.16,0,0,0-3.25,8.74,41.57,41.57,0,0,1-7,6,9.65,9.65,0,0,1-5,1.42c-4.53,0-7.27-2.62-8.39-7.81q17.64-5.2,17.65-13.5a6.26,6.26,0,0,0-2.25-5,8.89,8.89,0,0,0-6-1.95c-4.78,0-9.08,2.29-13.07,6.9A22.94,22.94,0,0,0,148.09,120a56.18,56.18,0,0,1-7.27,6.34,8.47,8.47,0,0,1-4.61,1.56,3.89,3.89,0,0,1-3.42-2,10.46,10.46,0,0,1-1.28-5.56c0-1,.1-2.94.32-5.74a70.83,70.83,0,0,0,11.79-16.34,35.5,35.5,0,0,0,3.78-15.86,12.48,12.48,0,0,0-.73-4.61c-.51-1.12-1.11-1.69-1.82-1.69a2.52,2.52,0,0,0-.72.17L133.94,80a127,127,0,0,0-8.88,21.8A70,70,0,0,0,121.43,122a14,14,0,0,0,2.52,9,8.46,8.46,0,0,0,6.92,3.32,15.78,15.78,0,0,0,7.84-2.38,58.23,58.23,0,0,0,9.58-7.41,11.45,11.45,0,0,0,11.91,9.82,17.27,17.27,0,0,0,9-2.37,48.32,48.32,0,0,0,8.79-7.07,12.54,12.54,0,0,0,2.34,6.14,7.26,7.26,0,0,0,6,3.3,11.12,11.12,0,0,0,7-2.7,41.61,41.61,0,0,0,7.41-8.48c-.24,7.46,1.81,11.18,6,11.18a9.52,9.52,0,0,0,5.3-1.81,82.68,82.68,0,0,0,9.19-7.94,46.31,46.31,0,0,0,8.19-10.35,22.29,22.29,0,0,0,6.51-2.12,36.84,36.84,0,0,0-5.92,13.38,11.08,11.08,0,0,0-.15,1.82,7.86,7.86,0,0,0,1.69,5.12,5.15,5.15,0,0,0,4.12,2.07c3.63,0,8.65-3.2,15.18-9.54v1.48q0,2.63.44,8.06l8.88-2.09c0-2.43,0-4.32.11-5.74a57.28,57.28,0,0,1,.8-6.26,8.41,8.41,0,0,1,1.81-3.82l2.26-2.61a59.18,59.18,0,0,1,4.57-4.8,19.63,19.63,0,0,1,2-1.58,3.12,3.12,0,0,1,1.49-.56c.66,0,1,.42,1,1.29a24.37,24.37,0,0,1-1.81,6c-2.35,5.88-3.64,10.26-3.64,13.13a7.53,7.53,0,0,0,1.66,5.07,5.52,5.52,0,0,0,4.34,1.81q6.63,0,15.89-9.79V120c-4.36,5-7.52,7.61-9.48,7.61ZM138.46,88.08c1.82-4.93,3.34-7.4,4.32-7.4.46,0,.84.31,1.13.91a5.41,5.41,0,0,1,.43,2.38,30.34,30.34,0,0,1-3.16,12.1,48.22,48.22,0,0,1-8.28,12.71,142.38,142.38,0,0,1,5.56-20.7Zm21.23,18.48c1.6-2.7,3.29-4,5.05-4s2.81,1.27,2.81,3.85q0,7.75-10.27,10.66a20,20,0,0,1,2.41-10.48Zm39.66,13.28q-3.54,6.82-7.57,6.83a3.27,3.27,0,0,1-2.69-1.33,5.48,5.48,0,0,1-1.07-3.52,27.54,27.54,0,0,1,3.63-12.57q3.63-6.81,7.63-6.81a3.31,3.31,0,0,1,2.69,1.25,5.73,5.73,0,0,1,1,3.53,27.77,27.77,0,0,1-3.62,12.62Z"/><path class="cls-3" d="M193.63,80.92l2-2,4.32,7h2.4l-5.17-8.26,4.39-4.4h-2.36l-5.56,5.52V68.24h-2V85.88h2v-5Zm10.28-7.72h2V85.86h-2Zm-17.47-5h2v2.55h-2Zm17.47,0h2v2.55h-2Zm5.83,16.17a1.81,1.81,0,0,0,.64,1.49,2.77,2.77,0,0,0,1.81.52,12.83,12.83,0,0,0,1.64-.16V84.55a2.78,2.78,0,0,1-1,.11,1.24,1.24,0,0,1-.89-.23,1.29,1.29,0,0,1-.23-.91V74.84h2.07V73.2h-2.07V69.71h-2V73.2H208v1.64h1.71ZM186.44,73.2h2V85.86h-2Zm-10.3,12.42a5.41,5.41,0,0,0,3,.8,5.67,5.67,0,0,0,2.62-.58,4.35,4.35,0,0,0,1.81-1.67,6.12,6.12,0,0,0,.78-2.67h-2c-.34,2-1.38,3-3.11,3A3,3,0,0,1,177.4,84a3.64,3.64,0,0,1-1.24-1.63,7.46,7.46,0,0,1-.42-2.6,8.34,8.34,0,0,1,.42-2.71,3.71,3.71,0,0,1,1.2-1.81,3.05,3.05,0,0,1,1.82-.6,2.86,2.86,0,0,1,2,.72,3.06,3.06,0,0,1,.94,2h2a7.23,7.23,0,0,0-.28-1.53,4.18,4.18,0,0,0-2.34-2.48,5.31,5.31,0,0,0-2.45-.53,5.61,5.61,0,0,0-2.31.49A4.74,4.74,0,0,0,175,74.75a6.48,6.48,0,0,0-1.15,2.19,9.57,9.57,0,0,0-.4,2.82,9.05,9.05,0,0,0,.69,3.63A5.47,5.47,0,0,0,176.14,85.62ZM168.88,84a3.59,3.59,0,0,1-2.14.54,3.45,3.45,0,0,1-2.47-.78,1.91,1.91,0,0,1-.4-.65,4,4,0,0,1-.22-1h-2.18a4.24,4.24,0,0,0,1.33,3.25,5.61,5.61,0,0,0,3.74,1.07,7,7,0,0,0,2.72-.49,4.15,4.15,0,0,0,1.82-1.41,3.65,3.65,0,0,0,.61-2.13,2.93,2.93,0,0,0-.83-2.23,5.73,5.73,0,0,0-2.72-1.29l-1.89-.51a4.27,4.27,0,0,1-1.82-.73,1.25,1.25,0,0,1-.54-1,1.61,1.61,0,0,1,.72-1.42,3.37,3.37,0,0,1,2-.49c1.62,0,2.45.67,2.53,2h2.12a4,4,0,0,0-.54-2.11,3.39,3.39,0,0,0-1.58-1.32,6.18,6.18,0,0,0-2.51-.46,5.46,5.46,0,0,0-3.51,1.06,3.37,3.37,0,0,0-1.32,2.79A3.86,3.86,0,0,0,162,78a2.58,2.58,0,0,0,.71,1,3.57,3.57,0,0,0,1.18.72,14.32,14.32,0,0,0,1.92.62l1.82.45a3.69,3.69,0,0,1,1.51.68,1.43,1.43,0,0,1,.45,1.09,1.68,1.68,0,0,1-.69,1.47Z"/></g></g></svg>