<?xml version="1.0" standalone="no"?><!DOCTYPE svg PUBLIC "-//W3C//DTD SVG 1.1//EN" "http://www.w3.org/Graphics/SVG/1.1/DTD/svg11.dtd"><svg t="1642425264527" class="icon" viewBox="0 0 1898 1024" version="1.1" xmlns="http://www.w3.org/2000/svg" p-id="13590" xmlns:xlink="http://www.w3.org/1999/xlink" width="370.703125" height="200"><defs><style type="text/css"></style></defs><path d="M193.124354 326.8142A189.312078 189.312078 0 0 0 52.999943 380.093091c-83.684121 83.684121-66.29642 237.197991 39.145572 342.639983s306.841776 74.943779 342.547001 39.145572c29.010495-28.82453 66.389402-237.197991-39.052589-342.639983-59.322743-59.229761-133.801611-90.75078-202.515573-92.424463z" fill="#3599CD" p-id="13591"></path><path d="M1208.770633 91.289892c-63.13502-63.228002-148.77177-92.982356-241.754126-91.215692-118.459522 2.231577-246.775174 56.44029-349.055766 158.720882-181.594542 181.594542-129.059511 528.790661-67.412209 590.437964 49.931525 49.838543 409.122368 114.275316 590.530946-67.412209q18.596471-19.154365 36.170137-39.889431a552.966074 552.966074 0 0 0 82.661314-133.336699c65.738526-151.096329 51.140296-314.559312-51.140296-417.304815z" fill="#F89939" p-id="13592"></path><path d="M1439.08793 653.368236c-6.69473 0-10.042094-4.184206-10.042094-12.366653a151.93317 151.93317 0 0 1 12.087706-40.354343c11.715777-30.126283 17.666648-51.791173 17.666648-65.087649a29.010495 29.010495 0 0 0-6.973677-19.71226 22.594713 22.594713 0 0 0-17.480683-7.9035 62.670108 62.670108 0 0 0-35.147331 14.412265 400.567991 400.567991 0 0 0-53.464855 52.07012 482.020536 482.020536 0 0 1 20.735066-66.854315l-50.11749 9.298236a398.894309 398.894309 0 0 0-24.733307 66.668349 257.28218 257.28218 0 0 0-5.764906 29.661372q-14.505248 14.59823-30.312248 27.894707a23.431554 23.431554 0 0 1-14.226301 5.021047 12.924548 12.924548 0 0 1-10.785953-5.114029 21.943836 21.943836 0 0 1-3.998242-13.761389 77.361321 77.361321 0 0 1 3.53333-21.199977c2.324559-8.089465 7.438589-23.152607 15.435071-45.37539l19.061383-52.628014h-4.556135l-14.133318 0.650877q-25.570148 48.53679-59.601691 52.163101a113.531457 113.531457 0 0 0 9.298236-37.192942 14.319283 14.319283 0 0 0-15.992966-16.457877 33.008737 33.008737 0 0 0-29.661371 17.945595 66.854314 66.854314 0 0 0-10.785954 33.845577 25.012254 25.012254 0 0 0 17.666648 23.245589 265.55761 265.55761 0 0 1-24.268395 30.591196c-11.622795 11.715777-20.642083 20.363136-27.150848 26.128042a27.894707 27.894707 0 0 1-17.666648 8.461394c-8.368412 0-12.459636-5.857888-12.459635-17.666647a260.350598 260.350598 0 0 1 13.947353-62.205197l18.596471-60.252567h-11.529812l-42.492937 24.08243a36.356101 36.356101 0 0 0-35.984172-23.524536 89.634992 89.634992 0 0 0-46.491178 17.201736 139.473535 139.473535 0 0 0-43.42276 45.282408A113.62444 113.62444 0 0 0 911.227093 615.059505a213.115561 213.115561 0 0 1-35.612243 30.77716 49.745561 49.745561 0 0 1-25.849095 7.252624c-23.152607 0-37.192943-13.389459-42.957848-39.982413q90.37885-26.592954 90.37885-69.085891a32.171895 32.171895 0 0 0-11.529812-25.849095 45.189425 45.189425 0 0 0-30.591195-9.949112c-24.45436 0-46.491178 11.715777-66.947297 35.333295a117.808646 117.808646 0 0 0-29.847336 70.759573 284.990922 284.990922 0 0 1-37.192943 32.450843 43.887672 43.887672 0 0 1-23.617519 7.996482 19.898224 19.898224 0 0 1-17.480683-10.414023 53.464855 53.464855 0 0 1-6.601747-28.452602c0-5.299994 0.557894-15.063142 1.673683-29.382424a362.63119 362.63119 0 0 0 60.345549-83.684121 181.50156 181.50156 0 0 0 19.34033-81.173597 63.042038 63.042038 0 0 0-3.719294-23.617519q-3.905259-8.647359-9.298236-8.647359a12.738583 12.738583 0 0 0-3.719294 0.836841l-52.163102 19.340331a650.876495 650.876495 0 0 0-45.468372 111.578827 360.678561 360.678561 0 0 0-18.596472 103.582345 71.875362 71.875362 0 0 0 12.924548 46.119249 43.236796 43.236796 0 0 0 35.426278 17.015771 80.89465 80.89465 0 0 0 40.168378-12.180688 297.543541 297.543541 0 0 0 49.001701-37.936802 60.531514 60.531514 0 0 0 15.899983 32.450843 59.694673 59.694673 0 0 0 45.096443 17.852612 88.333239 88.333239 0 0 0 45.840302-12.180689 248.448856 248.448856 0 0 0 45.003461-36.170136 64.250808 64.250808 0 0 0 11.994724 31.428036 37.192943 37.192943 0 0 0 30.777159 16.922789 56.905202 56.905202 0 0 0 35.798208-13.854371 211.627843 211.627843 0 0 0 37.936801-43.422761c-1.208771 38.215748 9.298236 57.277132 30.591195 57.277132a49.373631 49.373631 0 0 0 27.150848-9.298236 431.531116 431.531116 0 0 0 47.049073-40.633289 238.127815 238.127815 0 0 0 41.935043-52.999944 113.717422 113.717422 0 0 0 33.287683-10.878935 190.055937 190.055937 0 0 0-30.312248 68.527996 60.252567 60.252567 0 0 0-0.743859 9.298236 40.168378 40.168378 0 0 0 8.647359 26.221025 26.406989 26.406989 0 0 0 21.106995 10.599988c18.596471 0 44.259602-16.364895 77.73325-48.815737v7.531571q0 13.482442 2.231577 41.284166l45.468372-10.692971c0-12.459636 0-22.129801 0.557894-29.382424a303.122482 303.122482 0 0 1 4.091224-32.078913 42.957849 42.957849 0 0 1 9.298235-19.526295l11.529813-13.389459a306.841776 306.841776 0 0 1 23.431553-24.547343 95.585862 95.585862 0 0 1 10.042095-8.089465 15.899983 15.899983 0 0 1 7.624553-2.882453c3.347365 0 5.11403 2.138594 5.11403 6.601748a122.364781 122.364781 0 0 1-9.298236 30.77716c-11.994724 30.126283-18.596471 52.535031-18.596471 67.226243a38.401713 38.401713 0 0 0 8.461394 25.942078 28.452601 28.452601 0 0 0 22.222783 9.298235q33.93856 0 81.359562-50.11749v-23.617518c-22.315766 25.66313-38.494696 38.959607-48.53679 38.959607zM708.990468 450.945646c9.298236-25.198219 17.108754-37.843819 22.129801-37.843819 2.324559 0 4.277188 1.5807 5.764906 4.649118a27.336813 27.336813 0 0 1 2.231576 12.180689 156.024394 156.024394 0 0 1-16.17893 61.926249 246.868156 246.868156 0 0 1-42.399954 65.087649 730.097463 730.097463 0 0 1 28.452601-105.999886z m108.696374 94.656039c8.182447-13.854371 16.829807-20.642083 25.849095-20.642083s14.412265 6.508765 14.412266 19.712259q0 39.703466-52.628014 54.580644a103.024451 103.024451 0 0 1 12.366653-53.65082z m203.073467 67.970103q-18.13156 34.961366-38.773643 34.961366a16.643842 16.643842 0 0 1-13.761389-6.787712 27.894707 27.894707 0 0 1-5.485959-18.038578 140.961252 140.961252 0 0 1 18.596472-64.34379q18.596471-34.868384 39.052589-34.868384a16.922789 16.922789 0 0 1 13.761389 6.415783 29.010495 29.010495 0 0 1 5.11403 18.038577 141.426164 141.426164 0 0 1-18.503489 64.622738z" p-id="13593"></path><path d="M991.470866 414.310598l10.135077-10.321042 22.129801 35.612243h12.273671l-26.499971-42.306972 22.50173-22.501731h-12.087706l-28.452602 28.266637v-53.65082h-10.321041v90.285868h10.321041v-25.384183zM1044.09888 374.793096h10.321042v64.808703h-10.321042zM954.649853 349.408913h10.321042v13.01753h-10.321042zM1044.09888 349.408913h10.321042v13.01753h-10.321042zM1073.946217 432.16321a9.298236 9.298236 0 0 0 3.254382 7.624553 14.412265 14.412265 0 0 0 9.298236 2.696489 63.785897 63.785897 0 0 0 8.368412-0.836841v-8.740342a14.040336 14.040336 0 0 1-4.835083 0.557894 6.229818 6.229818 0 0 1-4.556135-1.20877 6.601747 6.601747 0 0 1-1.208771-4.649118V383.161508h10.599989v-8.368412h-10.599989v-17.852612h-10.321041v17.852612h-8.740342v8.368412h8.740342zM954.649853 374.793096h10.321042v64.808703h-10.321042zM901.928857 438.393028a27.894707 27.894707 0 0 0 15.249107 4.091224 29.103478 29.103478 0 0 0 13.389459-2.975436 22.780677 22.780677 0 0 0 9.298236-8.554376 31.892948 31.892948 0 0 0 3.998241-13.668407h-10.321042q-2.603506 15.621036-15.899983 15.621036a15.714018 15.714018 0 0 1-9.298235-2.975435 18.596471 18.596471 0 0 1-6.3228-8.368412 37.192943 37.192943 0 0 1-2.138595-13.296477 41.470131 41.470131 0 0 1 2.138595-13.854372 18.596471 18.596471 0 0 1 6.136835-9.298235 15.621036 15.621036 0 0 1 9.298236-3.068418 14.59823 14.59823 0 0 1 10.507006 3.719294 15.621036 15.621036 0 0 1 4.835083 10.414024h10.414023a36.170137 36.170137 0 0 0-1.394735-7.810518 21.664889 21.664889 0 0 0-11.994724-12.738583 27.894707 27.894707 0 0 0-12.552618-2.696488 28.638566 28.638566 0 0 0-11.808759 2.510524 24.361377 24.361377 0 0 0-9.298236 7.252624 32.543825 32.543825 0 0 0-5.857888 11.250865 47.328019 47.328019 0 0 0-2.045612 14.412265 45.189425 45.189425 0 0 0 3.533329 18.596471A27.894707 27.894707 0 0 0 901.928857 438.393028zM864.735915 430.117598a18.596471 18.596471 0 0 1-10.971918 2.789471 17.945595 17.945595 0 0 1-12.645601-3.998241 10.507006 10.507006 0 0 1-2.045612-3.347365 22.315766 22.315766 0 0 1-1.115788-5.207012h-11.157883a21.757871 21.757871 0 0 0 6.787712 16.643842 29.010495 29.010495 0 0 0 19.154366 5.485959 35.984172 35.984172 0 0 0 13.947353-2.510524 21.571907 21.571907 0 0 0 9.298236-7.252624 18.596471 18.596471 0 0 0 3.1614-10.878935 15.249106 15.249106 0 0 0-4.277188-11.43683 29.382425 29.382425 0 0 0-13.947354-6.601748l-9.670165-2.603505a21.478924 21.478924 0 0 1-9.298236-3.719295 6.508765 6.508765 0 0 1-2.78947-5.392976 8.182447 8.182447 0 0 1 3.719294-7.252624 17.015771 17.015771 0 0 1 10.135077-2.510524c8.27543 0 12.552618 3.440347 12.924547 10.321042h10.878936a20.270154 20.270154 0 0 0-2.789471-10.785954 17.201736 17.201736 0 0 0-8.089465-6.787712 31.335054 31.335054 0 0 0-12.831565-2.324559 27.894707 27.894707 0 0 0-17.945595 5.392977 17.294718 17.294718 0 0 0-6.787712 14.319283 20.177171 20.177171 0 0 0 1.022806 6.69473 12.831565 12.831565 0 0 0 3.626312 5.207012 19.34033 19.34033 0 0 0 6.043853 3.719294 75.873603 75.873603 0 0 0 9.85613 3.1614l9.298236 2.324559a18.596471 18.596471 0 0 1 7.717535 3.440347 7.345606 7.345606 0 0 1 2.324559 5.578941 8.647359 8.647359 0 0 1-3.533329 7.531571z" fill="#FFFFFF" p-id="13594"></path></svg>