<?xml version="1.0" standalone="no"?><!DOCTYPE svg PUBLIC "-//W3C//DTD SVG 1.1//EN" "http://www.w3.org/Graphics/SVG/1.1/DTD/svg11.dtd"><svg t="1642427291538" class="icon" viewBox="0 0 1047 1024" version="1.1" xmlns="http://www.w3.org/2000/svg" p-id="1562" xmlns:xlink="http://www.w3.org/1999/xlink" width="204.4921875" height="200"><defs><style type="text/css"></style></defs><path d="M23.812 119.058L523.906 0 1024 119.058 523.906 309.576 23.812 119.058z m523.905 238.14V1024l500.095-214.33V166.707z m347.769 407.835l-40.42-4.086-43.85-239.66-84.402 320.84-49.902-10.479C645.74 721.916 611.188 612.97 585.7 501.928c-6.863-29.837 13.858-65.986 21.926-99.254 22.633 24.624 46.916 47.99 67.217 74.395 10.923 14.197 14.984 33.634 26.195 60.092 44.087-76.543-16.346-211.475 143.158-201.311l47.256 182.817c63.288-76.15-31.592-208.803 126.733-261.665-45.554 183.288-5.03 366.446-122.7 508.031zM0 166.707V809.67L500.094 1024V357.199z m348.397 632.406c-28.814 25.462-114.447 25.829-145.672 0.655-54.826-44.217-87.151-116.36-128.907-176.792l42.306-35.18 143.76 146.93 36.332-23.838c-23.523-35.05-44.95-71.723-70.937-104.624-36.044-45.685-89.064-83.327-109.103-134.46-15.193-38.639-3.903-123.119 19.725-133.597 40.262-18.205 109.156-9.43 148.03 15.718 40.157 26.011 58.86 85.108 86.942 129.719l-29.444 29.234-137.603-113.583-34.683 31.958c27.61 31.172 54.67 62.869 83.013 93.412 39.712 42.725 95.717 78.43 115.888 128.698 16.739 41.781 9.325 120.158-19.647 145.75z" fill="#c9151e" p-id="1563"></path></svg>