<?xml version="1.0" encoding="utf-8"?>
<!-- Generator: Adobe Illustrator 23.0.2, SVG Export Plug-In . SVG Version: 6.00 Build 0)  -->
<svg version="1.1" id="图层_1" xmlns="http://www.w3.org/2000/svg" xmlns:xlink="http://www.w3.org/1999/xlink" x="0px" y="0px"
	 viewBox="0 0 381.3 200" style="enable-background:new 0 0 381.3 200;" xml:space="preserve">
<style type="text/css">
	.st0{fill:#E5EAEF;}
	.st1{fill:#FFFFFF;}
	.st2{fill:#75C771;}
	.st3{fill:#DDE8F5;}
	.st4{fill:#FFD02C;}
	.st5{fill:#463628;}
</style>
<path class="st0" d="M189.4,126.6H89.1c-6.2,0-11.3-5-11.3-11.3s5-11.3,11.3-11.3l0,0h100.3 M210.4,173.6H111
	c-6.5-0.4-11.5-6.1-11-12.7c0.4-5.9,5.1-10.6,11-11h71.8 M134.8,57.8h106.5c6.5,0.4,11.6,5.9,11.2,12.5c-0.3,6.1-5.2,10.9-11.2,11.2
	H134.8c-6.5-0.4-11.5-6-11.1-12.6C124.1,63,128.8,58.2,134.8,57.8L134.8,57.8z M111.4,81.5h105.8c6.2,0,11.3,5.1,11.3,11.3
	c0,6.2-5,11.3-11.3,11.3H111.4c-6.2-0.2-11.1-5.4-10.9-11.7C100.7,86.5,105.5,81.7,111.4,81.5L111.4,81.5z M90,126.2h77.6
	c5.5,0,12.6,23.7,11.1,23.7H90c-6.5-0.5-11.5-6.2-11-12.7C79.4,131.3,84.1,126.7,90,126.2L90,126.2z"/>
<path class="st1" d="M83.3,126.2h41.2c2.5,0.4,4.5,6,4.3,12.5c-0.1,6-2,10.8-4.3,11.2H83.3c-2.5-0.4-4.5-6-4.3-12.5
	C79.1,131.4,81,126.6,83.3,126.2z"/>
<path class="st1" d="M84.4,81.5h54.5c3.4,0.4,5.9,6,5.7,12.5c-0.2,6-2.6,10.9-5.7,11.2H84.4c-3.4-0.4-5.9-6-5.7-12.5
	C78.8,86.7,81.3,81.9,84.4,81.5z"/>
<path class="st0" d="M65.8,161.8c0,6.5,5.3,11.8,11.8,11.8c6.5,0,11.8-5.3,11.8-11.8c0,0,0,0,0,0c0-6.5-5.3-11.8-11.8-11.8
	C71.1,149.9,65.8,155.2,65.8,161.8C65.8,161.8,65.8,161.8,65.8,161.8z"/>
<path class="st2" d="M349.9,171v17.8c-0.4,2.9,1.7,5.5,4.6,5.9s5.5-1.7,5.9-4.6c0.1-0.4,0.1-0.9,0-1.3V171 M360.4,171h15.8
	c2.9,0,5.3-2.4,5.3-5.3c0-2.9-2.4-5.3-5.3-5.3h-15.8 M349.9,171h-15.8c-2.9,0-5.3-2.4-5.3-5.3c0-2.9,2.4-5.3,5.3-5.3h15.8
	 M349.9,160.5v-17.8c-0.4-2.9,1.7-5.5,4.6-5.9c2.9-0.4,5.5,1.7,5.9,4.6c0.1,0.4,0.1,0.9,0,1.3v17.8"/>
<path class="st3" d="M355.1,26.3c-3,0.1-5.4,2.7-5.2,5.7v25.4c-0.2,2.9,1.9,5.4,4.8,5.7c2.9,0.2,5.4-1.9,5.7-4.8c0-0.3,0-0.6,0-0.9
	V32C360.5,29,358.1,26.5,355.1,26.3z M336.7,44.7c0.1,3,2.7,5.4,5.7,5.2h25.5c2.9,0.3,5.5-1.8,5.8-4.6s-1.8-5.5-4.6-5.8
	c-0.4,0-0.8,0-1.2,0h-25.5C339.4,39.4,336.8,41.7,336.7,44.7z"/>
<path class="st4" d="M160.5,0c-3,0.1-5.4,2.7-5.2,5.7v25.5c-0.2,2.9,1.9,5.4,4.8,5.7c2.9,0.2,5.4-1.9,5.7-4.8c0-0.3,0-0.6,0-0.9V5.7
	C165.8,2.7,163.5,0.1,160.5,0z M142,18.4c0.1,3,2.7,5.4,5.7,5.3h25.5c2.9,0.2,5.5-2,5.7-4.9s-2-5.5-4.9-5.7c-0.3,0-0.5,0-0.8,0
	h-25.5C144.7,13,142.2,15.4,142,18.4z"/>
<path class="st2" d="M191.2,50H280c15.6,0,22.6,11.2,22.6,20v115.9l-5.6,11.3H180.1l-22.3-22.7V84L191.2,50z"/>
<path class="st4" d="M280.2,134.2c-7.8,0-13-8.1-13-8.1l-16.5,0.1l-21.8-18.4h-13.2c0,0-4.1-0.1-4.2,0.1c-3.7,7.1-12.4,9.9-19.5,6.3
	c-7.1-3.7-9.9-12.4-6.3-19.5c3.7-7.1,12.4-9.9,19.5-6.3c3.6,1.8,6.2,5.1,7.3,8.9c1,0.1,2.1,0.1,3.1,0l13.2,0l21.8,18.4
	c0,0,15.6,0,15.6-0.1c2.3-7.7,10.3-12.1,18-9.8c7.7,2.3,12.1,10.3,9.8,18C292.2,130,286.6,134.2,280.2,134.2z M198.6,97.3
	c-2.2,0-4,1.7-4,3.9c0,2.2,1.7,4,3.9,4c2.2,0,4-1.7,4-3.9c0,0,0,0,0,0C202.5,99.1,200.8,97.3,198.6,97.3
	C198.6,97.3,198.6,97.3,198.6,97.3L198.6,97.3z M280.1,115.7c-2.2,0-4,1.7-4,3.9c0,2.2,1.7,4,3.9,4c2.2,0,4-1.7,4-3.9c0,0,0,0,0,0
	C284.1,117.5,282.3,115.7,280.1,115.7C280.1,115.7,280.1,115.7,280.1,115.7L280.1,115.7z"/>
<path class="st5" d="M281.5,65.8c0,2.9,2.4,5.3,5.3,5.3s5.3-2.4,5.3-5.3c0-2.9-2.4-5.3-5.3-5.3S281.5,62.9,281.5,65.8L281.5,65.8z"
	/>
<path class="st5" d="M318.3,142.1c-2.9,0-5.3-2.4-5.3-5.3v-5.3c0-2.9,2.4-5.3,5.3-5.3s5.3,2.4,5.3,5.3l0,0v5.3
	C323.6,139.7,321.2,142.1,318.3,142.1C318.3,142.1,318.3,142.1,318.3,142.1L318.3,142.1z M313,115.7V63.1c0-11.7-11.8-21-23.4-21
	H214c-3.6,0.2-7,1.8-9.5,4.3L171,78.9c-2.3,2.3-5.3,8-5.3,18.4v71c0,11.6,9.4,21,21,21c0,0,0,0,0.1,0h5.3v-18
	c-0.2-2.9,1.9-5.4,4.8-5.7c2.9-0.2,5.4,1.9,5.7,4.8c0,0.3,0,0.6,0,0.9v18h10.6v-18c-0.2-2.9,1.9-5.4,4.8-5.7
	c2.9-0.2,5.4,1.9,5.7,4.8c0,0.3,0,0.6,0,0.9v18h10.6v-18c-0.2-2.9,1.9-5.4,4.8-5.7c2.9-0.2,5.4,1.9,5.7,4.8c0,0.3,0,0.6,0,0.9v18
	h10.6v-18c-0.2-2.9,1.9-5.4,4.8-5.7s5.4,1.9,5.7,4.8c0,0.3,0,0.6,0,0.9v18h10.6v-18c-0.2-2.9,1.9-5.4,4.8-5.7s5.4,1.9,5.7,4.8
	c0,0.3,0,0.6,0,0.9v18h5.3c11.6,0,21-9.4,21-21c0,0,0,0,0-0.1v-13.2c0-6.6,10.5-7,10.5,0v18.4c-0.1,14.4-11.6,26.1-26,26.4H181.7
	c-14.5-0.2-26.2-11.9-26.5-26.4V100c0-3.2-1.6-18.9,6.9-27.3C172.3,62.4,196.2,38,196.2,38c4.7-4.1,10.6-6.4,16.8-6.5h84.2
	c14.4,0.2,26.1,11.9,26.3,26.3v57.9C323.6,123.4,313,122.6,313,115.7L313,115.7z"/>
</svg>
